<mxfile host="app.diagrams.net" modified="2023-05-30T15:30:25.952Z" agent="Mozilla/5.0 (Windows NT 10.0; Win64; x64) AppleWebKit/537.36 (KHTML, like Gecko) Chrome/112.0.0.0 Safari/537.36" etag="YUOgKJ3BPswzSkhNjdGn" version="21.3.5" type="github">
  <diagram name="Page-1" id="c7558073-3199-34d8-9f00-42111426c3f3">
    <mxGraphModel dx="989" dy="498" grid="1" gridSize="10" guides="1" tooltips="1" connect="1" arrows="1" fold="1" page="1" pageScale="1" pageWidth="826" pageHeight="1169" background="none" math="0" shadow="0">
      <root>
        <mxCell id="0" />
        <mxCell id="1" parent="0" />
        <mxCell id="2" value="&lt;p style=&quot;margin: 0px; margin-top: 4px; text-align: center; text-decoration: underline;&quot;&gt;&lt;strong&gt;0&lt;/strong&gt;&lt;/p&gt;&lt;hr&gt;&lt;p style=&quot;margin: 0px; margin-left: 8px;&quot;&gt;&lt;span style=&quot;background-color: initial;&quot;&gt;Online Pharmacy&lt;br&gt;Management&lt;/span&gt;&lt;br&gt;&lt;/p&gt;&lt;p style=&quot;margin: 0px; margin-left: 8px;&quot;&gt;System&lt;/p&gt;" style="verticalAlign=middle;align=center;overflow=fill;fontSize=12;fontFamily=Helvetica;html=1;rounded=1;fontStyle=1;strokeWidth=3;fillColor=#E6FFCC" parent="1" vertex="1">
          <mxGeometry x="226" y="236" width="110" height="90" as="geometry" />
        </mxCell>
        <mxCell id="3" value="Report Generator System" style="whiteSpace=wrap;align=center;verticalAlign=middle;fontStyle=1;strokeWidth=3;fillColor=#FFFFCC" parent="1" vertex="1">
          <mxGeometry x="450" y="251" width="90" height="60" as="geometry" />
        </mxCell>
        <mxCell id="4" value="Admin" style="whiteSpace=wrap;align=center;verticalAlign=middle;fontStyle=1;strokeWidth=3;fillColor=#FFFFCC" parent="1" vertex="1">
          <mxGeometry x="40" y="251" width="90" height="60" as="geometry" />
        </mxCell>
        <mxCell id="36" value="" style="edgeStyle=orthogonalEdgeStyle;strokeColor=#990000;strokeWidth=2" parent="1" source="3" target="2" edge="1">
          <mxGeometry width="100" height="100" relative="1" as="geometry">
            <mxPoint x="20" y="250" as="sourcePoint" />
            <mxPoint x="120" y="150" as="targetPoint" />
            <Array as="points">
              <mxPoint x="400" y="300" />
              <mxPoint x="400" y="300" />
            </Array>
          </mxGeometry>
        </mxCell>
        <mxCell id="37" value="" style="edgeStyle=orthogonalEdgeStyle;strokeColor=#990000;strokeWidth=2" parent="1" source="4" target="2" edge="1">
          <mxGeometry width="100" height="100" relative="1" as="geometry">
            <mxPoint x="280" y="190" as="sourcePoint" />
            <mxPoint x="380" y="90" as="targetPoint" />
            <Array as="points">
              <mxPoint x="190" y="270" />
              <mxPoint x="190" y="270" />
            </Array>
          </mxGeometry>
        </mxCell>
        <mxCell id="52" value="Report&#xa;Type" style="text;spacingTop=-5;align=center" parent="1" vertex="1">
          <mxGeometry x="158.5" y="236" width="30" height="20" as="geometry" />
        </mxCell>
        <mxCell id="55" value="" style="edgeStyle=elbowEdgeStyle;elbow=horizontal;strokeColor=#990000;strokeWidth=2" parent="1" source="ehxgZSLrL6jvX1yqHZjY-101" target="2" edge="1">
          <mxGeometry width="100" height="100" relative="1" as="geometry">
            <mxPoint x="260" y="391" as="sourcePoint" />
            <mxPoint x="150" y="430" as="targetPoint" />
            <Array as="points">
              <mxPoint x="250" y="380" />
              <mxPoint x="260" y="370" />
            </Array>
          </mxGeometry>
        </mxCell>
        <mxCell id="56" value="" style="edgeStyle=elbowEdgeStyle;elbow=horizontal;strokeColor=#990000;strokeWidth=2" parent="1" source="2" target="ehxgZSLrL6jvX1yqHZjY-101" edge="1">
          <mxGeometry width="100" height="100" relative="1" as="geometry">
            <mxPoint x="50" y="500" as="sourcePoint" />
            <mxPoint x="280" y="391" as="targetPoint" />
            <Array as="points">
              <mxPoint x="300" y="370" />
              <mxPoint x="310" y="350" />
              <mxPoint x="280" y="360" />
            </Array>
          </mxGeometry>
        </mxCell>
        <mxCell id="ehxgZSLrL6jvX1yqHZjY-97" value="" style="edgeStyle=orthogonalEdgeStyle;strokeColor=#990000;strokeWidth=2;" edge="1" parent="1" source="2" target="4">
          <mxGeometry width="100" height="100" relative="1" as="geometry">
            <mxPoint x="140" y="291" as="sourcePoint" />
            <mxPoint x="246" y="291" as="targetPoint" />
            <Array as="points">
              <mxPoint x="180" y="300" />
              <mxPoint x="180" y="300" />
            </Array>
          </mxGeometry>
        </mxCell>
        <mxCell id="ehxgZSLrL6jvX1yqHZjY-100" value="Report&#xa;Data" style="text;spacingTop=-5;align=center" vertex="1" parent="1">
          <mxGeometry x="163" y="301" width="30" height="20" as="geometry" />
        </mxCell>
        <mxCell id="ehxgZSLrL6jvX1yqHZjY-101" value="Patient" style="whiteSpace=wrap;align=center;verticalAlign=middle;fontStyle=1;strokeWidth=3;fillColor=#FFFFCC;direction=west;" vertex="1" parent="1">
          <mxGeometry x="226" y="400" width="90" height="60" as="geometry" />
        </mxCell>
        <mxCell id="ehxgZSLrL6jvX1yqHZjY-104" value="" style="edgeStyle=orthogonalEdgeStyle;strokeColor=#990000;strokeWidth=2" edge="1" parent="1" source="2" target="3">
          <mxGeometry width="100" height="100" relative="1" as="geometry">
            <mxPoint x="346" y="270" as="sourcePoint" />
            <mxPoint x="452" y="270" as="targetPoint" />
            <Array as="points">
              <mxPoint x="390" y="270" />
              <mxPoint x="390" y="270" />
            </Array>
          </mxGeometry>
        </mxCell>
        <mxCell id="ehxgZSLrL6jvX1yqHZjY-105" value="Request Report&#xa;Generation" style="text;spacingTop=-5;align=center" vertex="1" parent="1">
          <mxGeometry x="380" y="236" width="30" height="20" as="geometry" />
        </mxCell>
        <mxCell id="ehxgZSLrL6jvX1yqHZjY-107" value="Report&#xa;Data" style="text;spacingTop=-5;align=center" vertex="1" parent="1">
          <mxGeometry x="380" y="301" width="30" height="20" as="geometry" />
        </mxCell>
        <mxCell id="ehxgZSLrL6jvX1yqHZjY-108" value="Report&#xa;Type" style="text;spacingTop=-5;align=center;direction=west;horizontal=0;fontSize=13;" vertex="1" parent="1">
          <mxGeometry x="210" y="350" width="30" height="20" as="geometry" />
        </mxCell>
        <mxCell id="ehxgZSLrL6jvX1yqHZjY-109" value="Report&#xa;Data" style="text;spacingTop=-5;align=center;horizontal=0;fontSize=13;" vertex="1" parent="1">
          <mxGeometry x="306" y="350" width="30" height="20" as="geometry" />
        </mxCell>
        <mxCell id="ehxgZSLrL6jvX1yqHZjY-111" style="edgeStyle=orthogonalEdgeStyle;rounded=0;orthogonalLoop=1;jettySize=auto;html=1;exitX=0.5;exitY=1;exitDx=0;exitDy=0;" edge="1" parent="1" source="ehxgZSLrL6jvX1yqHZjY-105" target="ehxgZSLrL6jvX1yqHZjY-105">
          <mxGeometry relative="1" as="geometry" />
        </mxCell>
      </root>
    </mxGraphModel>
  </diagram>
</mxfile>
